 <svg width="200" height="331" viewBox="0 0 402 331" fill="none" xmlns="http://www.w3.org/2000/svg">
      <g id="mail">
      <g id="Rectangle 8">
      <mask id="path-1-inside-1" fill="white">
      <rect x="10.9999" y="93.001" width="380" height="238" rx="2"/>
      </mask>
      <rect x="10.9999" y="93.001" width="380" height="238" rx="2" fill="white" stroke="black" stroke-width="12" mask="url(#path-1-inside-1)"/>
      </g>
      <line id="Line 5" y1="-2" x2="181.298" y2="-2" transform="matrix(0.805306 0.592859 -0.522006 0.852942 10.9999 96.291)" stroke="black" stroke-width="4"/>
      <line id="Line 6" y1="-2" x2="181.298" y2="-2" transform="matrix(0.805306 -0.592859 0.522006 0.852942 245 203.775)" stroke="black" stroke-width="4"/>
      <path id="Polygon 1" d="M13.2421 93L201 3.32461L388.758 93H13.2421Z" fill="white" stroke="black" stroke-width="6"/>
      <line id="Line 7" x1="157" y1="201.775" x2="245" y2="201.775" stroke="black" stroke-width="4"/>
      <line id="Line 8" x1="63.9999" y1="105.662" x2="339" y2="105.662" stroke="black"/>
      <line id="Line 9" x1="64.4999" y1="106.162" x2="64.4999" y2="131.388" stroke="black"/>
      <line id="Line 10" x1="339.5" y1="106.162" x2="339.5" y2="131.388" stroke="black"/>
      <line id="Line 11" x1="111" y1="118.823" x2="147" y2="118.823" stroke="black"/>
      <line id="Line 12" x1="126" y1="142.953" x2="277" y2="142.953" stroke="black"/>
      <line id="Line 13" x1="126" y1="152.823" x2="277" y2="152.823" stroke="black"/>
      <line id="Line 14" x1="126" y1="162.694" x2="277" y2="162.694" stroke="black"/>
      <line id="Line 15" x1="126" y1="172.565" x2="277" y2="172.565" stroke="black"/>
      </g>
      </svg>