<svg width="723" height="501" viewBox="0 0 723 501" fill="none" xmlns="http://www.w3.org/2000/svg">
<g id="message">
<rect id="Rectangle 3" width="723" height="501" rx="36" fill="#F8F2F2"/>
<rect id="Rectangle 4" x="37.5" y="41.5" width="651" height="423" rx="34.5" fill="#F8F2F2" stroke="#8F804A" stroke-width="3"/>
<g id="A Message for our supporters" filter="url(#filter0_d)">
<path d="M157.121 215.488H139.329L136.385 224H126.977L143.041 179.264H153.473L169.537 224H160.065L157.121 215.488ZM154.689 208.32L148.225 189.632L141.76 208.32H154.689ZM239.495 179.328V224H230.535V194.944L218.567 224H211.783L199.751 194.944V224H190.791V179.328H200.967L215.175 212.544L229.383 179.328H239.495ZM281.314 205.504C281.314 206.784 281.228 207.936 281.058 208.96H255.138C255.351 211.52 256.247 213.525 257.826 214.976C259.404 216.427 261.346 217.152 263.65 217.152C266.978 217.152 269.346 215.723 270.754 212.864H280.418C279.394 216.277 277.431 219.093 274.53 221.312C271.628 223.488 268.066 224.576 263.842 224.576C260.428 224.576 257.356 223.829 254.626 222.336C251.938 220.8 249.826 218.645 248.29 215.872C246.796 213.099 246.049 209.899 246.049 206.272C246.049 202.603 246.796 199.381 248.29 196.608C249.783 193.835 251.874 191.701 254.562 190.208C257.25 188.715 260.343 187.968 263.842 187.968C267.212 187.968 270.22 188.693 272.866 190.144C275.554 191.595 277.623 193.664 279.074 196.352C280.567 198.997 281.314 202.048 281.314 205.504ZM272.034 202.944C271.991 200.64 271.159 198.805 269.538 197.44C267.916 196.032 265.932 195.328 263.586 195.328C261.367 195.328 259.49 196.011 257.954 197.376C256.46 198.699 255.543 200.555 255.202 202.944H272.034ZM301.422 224.576C298.52 224.576 295.918 224.064 293.614 223.04C291.31 221.973 289.475 220.544 288.11 218.752C286.787 216.96 286.062 214.976 285.934 212.8H294.958C295.128 214.165 295.79 215.296 296.942 216.192C298.136 217.088 299.608 217.536 301.358 217.536C303.064 217.536 304.387 217.195 305.326 216.512C306.307 215.829 306.798 214.955 306.798 213.888C306.798 212.736 306.2 211.883 305.006 211.328C303.854 210.731 301.998 210.091 299.438 209.408C296.792 208.768 294.616 208.107 292.91 207.424C291.246 206.741 289.795 205.696 288.558 204.288C287.363 202.88 286.766 200.981 286.766 198.592C286.766 196.629 287.32 194.837 288.43 193.216C289.582 191.595 291.203 190.315 293.294 189.376C295.427 188.437 297.923 187.968 300.782 187.968C305.006 187.968 308.376 189.035 310.894 191.168C313.411 193.259 314.798 196.096 315.054 199.68H306.478C306.35 198.272 305.752 197.163 304.686 196.352C303.662 195.499 302.275 195.072 300.526 195.072C298.904 195.072 297.646 195.371 296.75 195.968C295.896 196.565 295.47 197.397 295.47 198.464C295.47 199.659 296.067 200.576 297.262 201.216C298.456 201.813 300.312 202.432 302.83 203.072C305.39 203.712 307.502 204.373 309.166 205.056C310.83 205.739 312.259 206.805 313.454 208.256C314.691 209.664 315.331 211.541 315.374 213.888C315.374 215.936 314.798 217.771 313.646 219.392C312.536 221.013 310.915 222.293 308.782 223.232C306.691 224.128 304.238 224.576 301.422 224.576ZM336.297 224.576C333.395 224.576 330.793 224.064 328.489 223.04C326.185 221.973 324.35 220.544 322.985 218.752C321.662 216.96 320.937 214.976 320.809 212.8H329.833C330.003 214.165 330.665 215.296 331.817 216.192C333.011 217.088 334.483 217.536 336.233 217.536C337.939 217.536 339.262 217.195 340.201 216.512C341.182 215.829 341.673 214.955 341.673 213.888C341.673 212.736 341.075 211.883 339.881 211.328C338.729 210.731 336.873 210.091 334.312 209.408C331.667 208.768 329.491 208.107 327.785 207.424C326.121 206.741 324.67 205.696 323.433 204.288C322.238 202.88 321.641 200.981 321.641 198.592C321.641 196.629 322.195 194.837 323.305 193.216C324.457 191.595 326.078 190.315 328.169 189.376C330.302 188.437 332.798 187.968 335.657 187.968C339.881 187.968 343.251 189.035 345.769 191.168C348.286 193.259 349.673 196.096 349.929 199.68H341.353C341.225 198.272 340.627 197.163 339.561 196.352C338.537 195.499 337.15 195.072 335.401 195.072C333.779 195.072 332.521 195.371 331.625 195.968C330.771 196.565 330.345 197.397 330.345 198.464C330.345 199.659 330.942 200.576 332.137 201.216C333.331 201.813 335.187 202.432 337.705 203.072C340.265 203.712 342.377 204.373 344.041 205.056C345.705 205.739 347.134 206.805 348.329 208.256C349.566 209.664 350.206 211.541 350.249 213.888C350.249 215.936 349.673 217.771 348.521 219.392C347.411 221.013 345.79 222.293 343.657 223.232C341.566 224.128 339.113 224.576 336.297 224.576ZM355.299 206.144C355.299 202.56 356.003 199.381 357.411 196.608C358.862 193.835 360.804 191.701 363.236 190.208C365.71 188.715 368.462 187.968 371.492 187.968C374.137 187.968 376.441 188.501 378.404 189.568C380.409 190.635 382.009 191.979 383.204 193.6V188.544H392.228V224H383.204V218.816C382.052 220.48 380.452 221.867 378.404 222.976C376.398 224.043 374.073 224.576 371.428 224.576C368.441 224.576 365.71 223.808 363.236 222.272C360.804 220.736 358.862 218.581 357.411 215.808C356.003 212.992 355.299 209.771 355.299 206.144ZM383.204 206.272C383.204 204.096 382.777 202.24 381.924 200.704C381.07 199.125 379.918 197.931 378.468 197.12C377.017 196.267 375.46 195.84 373.796 195.84C372.132 195.84 370.596 196.245 369.188 197.056C367.78 197.867 366.628 199.061 365.732 200.64C364.878 202.176 364.452 204.011 364.452 206.144C364.452 208.277 364.878 210.155 365.732 211.776C366.628 213.355 367.78 214.571 369.188 215.424C370.638 216.277 372.174 216.704 373.796 216.704C375.46 216.704 377.017 216.299 378.468 215.488C379.918 214.635 381.07 213.44 381.924 211.904C382.777 210.325 383.204 208.448 383.204 206.272ZM414.867 187.968C417.512 187.968 419.837 188.501 421.843 189.568C423.848 190.592 425.427 191.936 426.579 193.6V188.544H435.603V224.256C435.603 227.541 434.941 230.464 433.619 233.024C432.296 235.627 430.312 237.675 427.667 239.168C425.021 240.704 421.821 241.472 418.067 241.472C413.032 241.472 408.893 240.299 405.651 237.952C402.451 235.605 400.637 232.405 400.211 228.352H409.107C409.576 229.973 410.579 231.253 412.115 232.192C413.693 233.173 415.592 233.664 417.811 233.664C420.413 233.664 422.525 232.875 424.147 231.296C425.768 229.76 426.579 227.413 426.579 224.256V218.752C425.427 220.416 423.827 221.803 421.779 222.912C419.773 224.021 417.469 224.576 414.867 224.576C411.88 224.576 409.149 223.808 406.675 222.272C404.2 220.736 402.237 218.581 400.786 215.808C399.378 212.992 398.674 209.771 398.674 206.144C398.674 202.56 399.378 199.381 400.786 196.608C402.237 193.835 404.179 191.701 406.611 190.208C409.085 188.715 411.837 187.968 414.867 187.968ZM426.579 206.272C426.579 204.096 426.152 202.24 425.299 200.704C424.445 199.125 423.293 197.931 421.843 197.12C420.392 196.267 418.835 195.84 417.171 195.84C415.507 195.84 413.971 196.245 412.562 197.056C411.155 197.867 410.003 199.061 409.107 200.64C408.253 202.176 407.827 204.011 407.827 206.144C407.827 208.277 408.253 210.155 409.107 211.776C410.003 213.355 411.155 214.571 412.562 215.424C414.013 216.277 415.549 216.704 417.171 216.704C418.835 216.704 420.392 216.299 421.843 215.488C423.293 214.635 424.445 213.44 425.299 211.904C426.152 210.325 426.579 208.448 426.579 206.272ZM477.314 205.504C477.314 206.784 477.228 207.936 477.058 208.96H451.138C451.351 211.52 452.247 213.525 453.826 214.976C455.404 216.427 457.346 217.152 459.65 217.152C462.978 217.152 465.346 215.723 466.754 212.864H476.418C475.394 216.277 473.431 219.093 470.53 221.312C467.628 223.488 464.066 224.576 459.842 224.576C456.428 224.576 453.356 223.829 450.626 222.336C447.938 220.8 445.826 218.645 444.29 215.872C442.796 213.099 442.049 209.899 442.049 206.272C442.049 202.603 442.796 199.381 444.29 196.608C445.783 193.835 447.874 191.701 450.562 190.208C453.25 188.715 456.343 187.968 459.842 187.968C463.212 187.968 466.22 188.693 468.866 190.144C471.554 191.595 473.623 193.664 475.074 196.352C476.567 198.997 477.314 202.048 477.314 205.504ZM468.034 202.944C467.991 200.64 467.159 198.805 465.538 197.44C463.916 196.032 461.932 195.328 459.586 195.328C457.367 195.328 455.49 196.011 453.954 197.376C452.46 198.699 451.543 200.555 451.202 202.944H468.034ZM515.36 195.904H509.152V224H500.064V195.904H496.032V188.544H500.064V186.752C500.064 182.4 501.301 179.2 503.776 177.152C506.25 175.104 509.984 174.144 514.976 174.272V181.824C512.8 181.781 511.285 182.144 510.432 182.912C509.578 183.68 509.152 185.067 509.152 187.072V188.544H515.36V195.904ZM536.91 224.576C533.497 224.576 530.425 223.829 527.694 222.336C524.963 220.8 522.809 218.645 521.23 215.872C519.694 213.099 518.926 209.899 518.926 206.272C518.926 202.645 519.715 199.445 521.294 196.672C522.915 193.899 525.113 191.765 527.886 190.272C530.659 188.736 533.753 187.968 537.166 187.968C540.579 187.968 543.673 188.736 546.446 190.272C549.219 191.765 551.395 193.899 552.974 196.672C554.595 199.445 555.406 202.645 555.406 206.272C555.406 209.899 554.574 213.099 552.91 215.872C551.289 218.645 549.07 220.8 546.254 222.336C543.481 223.829 540.366 224.576 536.91 224.576ZM536.91 216.768C538.531 216.768 540.046 216.384 541.454 215.616C542.905 214.805 544.057 213.611 544.91 212.032C545.763 210.453 546.19 208.533 546.19 206.272C546.19 202.901 545.294 200.32 543.502 198.528C541.753 196.693 539.598 195.776 537.038 195.776C534.478 195.776 532.323 196.693 530.574 198.528C528.867 200.32 528.014 202.901 528.014 206.272C528.014 209.643 528.846 212.245 530.51 214.08C532.217 215.872 534.35 216.768 536.91 216.768ZM570.939 194.048C572.091 192.171 573.584 190.699 575.419 189.632C577.296 188.565 579.429 188.032 581.819 188.032V197.44H579.451C576.635 197.44 574.501 198.101 573.051 199.424C571.643 200.747 570.939 203.051 570.939 206.336V224H561.979V188.544H570.939V194.048ZM142.191 320.576C138.778 320.576 135.706 319.829 132.975 318.336C130.245 316.8 128.09 314.645 126.511 311.872C124.975 309.099 124.207 305.899 124.207 302.272C124.207 298.645 124.997 295.445 126.575 292.672C128.197 289.899 130.394 287.765 133.167 286.272C135.941 284.736 139.034 283.968 142.447 283.968C145.861 283.968 148.954 284.736 151.727 286.272C154.501 287.765 156.677 289.899 158.255 292.672C159.877 295.445 160.687 298.645 160.687 302.272C160.687 305.899 159.855 309.099 158.191 311.872C156.57 314.645 154.351 316.8 151.535 318.336C148.762 319.829 145.647 320.576 142.191 320.576ZM142.191 312.768C143.813 312.768 145.327 312.384 146.735 311.616C148.186 310.805 149.338 309.611 150.191 308.032C151.045 306.453 151.471 304.533 151.471 302.272C151.471 298.901 150.575 296.32 148.783 294.528C147.034 292.693 144.879 291.776 142.319 291.776C139.759 291.776 137.605 292.693 135.855 294.528C134.149 296.32 133.295 298.901 133.295 302.272C133.295 305.643 134.127 308.245 135.791 310.08C137.498 311.872 139.631 312.768 142.191 312.768ZM200.732 284.544V320H191.708V315.52C190.556 317.056 189.041 318.272 187.164 319.168C185.329 320.021 183.324 320.448 181.148 320.448C178.374 320.448 175.921 319.872 173.788 318.72C171.654 317.525 169.969 315.797 168.732 313.536C167.537 311.232 166.94 308.501 166.94 305.344V284.544H175.9V304.064C175.9 306.88 176.604 309.056 178.012 310.592C179.42 312.085 181.34 312.832 183.772 312.832C186.246 312.832 188.188 312.085 189.596 310.592C191.004 309.056 191.708 306.88 191.708 304.064V284.544H200.732ZM218.532 290.048C219.684 288.171 221.178 286.699 223.012 285.632C224.89 284.565 227.023 284.032 229.412 284.032V293.44H227.044C224.228 293.44 222.095 294.101 220.644 295.424C219.236 296.747 218.532 299.051 218.532 302.336V320H209.572V284.544H218.532V290.048ZM264.265 320.576C261.364 320.576 258.761 320.064 256.457 319.04C254.153 317.973 252.319 316.544 250.953 314.752C249.631 312.96 248.905 310.976 248.777 308.8H257.801C257.972 310.165 258.633 311.296 259.785 312.192C260.98 313.088 262.452 313.536 264.201 313.536C265.908 313.536 267.231 313.195 268.169 312.512C269.151 311.829 269.641 310.955 269.641 309.888C269.641 308.736 269.044 307.883 267.849 307.328C266.697 306.731 264.841 306.091 262.281 305.408C259.636 304.768 257.46 304.107 255.753 303.424C254.089 302.741 252.639 301.696 251.401 300.288C250.207 298.88 249.609 296.981 249.609 294.592C249.609 292.629 250.164 290.837 251.273 289.216C252.425 287.595 254.047 286.315 256.137 285.376C258.271 284.437 260.767 283.968 263.625 283.968C267.849 283.968 271.22 285.035 273.737 287.168C276.255 289.259 277.641 292.096 277.897 295.68H269.321C269.193 294.272 268.596 293.163 267.529 292.352C266.505 291.499 265.119 291.072 263.369 291.072C261.748 291.072 260.489 291.371 259.593 291.968C258.74 292.565 258.313 293.397 258.313 294.464C258.313 295.659 258.911 296.576 260.105 297.216C261.3 297.813 263.156 298.432 265.673 299.072C268.233 299.712 270.345 300.373 272.009 301.056C273.673 301.739 275.103 302.805 276.297 304.256C277.535 305.664 278.175 307.541 278.217 309.888C278.217 311.936 277.641 313.771 276.489 315.392C275.38 317.013 273.759 318.293 271.625 319.232C269.535 320.128 267.081 320.576 264.265 320.576ZM319.044 284.544V320H310.02V315.52C308.868 317.056 307.354 318.272 305.476 319.168C303.642 320.021 301.636 320.448 299.46 320.448C296.687 320.448 294.234 319.872 292.1 318.72C289.967 317.525 288.282 315.797 287.044 313.536C285.85 311.232 285.252 308.501 285.252 305.344V284.544H294.212V304.064C294.212 306.88 294.916 309.056 296.324 310.592C297.732 312.085 299.652 312.832 302.084 312.832C304.559 312.832 306.5 312.085 307.908 310.592C309.316 309.056 310.02 306.88 310.02 304.064V284.544H319.044ZM336.845 289.664C337.997 288.043 339.575 286.699 341.581 285.632C343.629 284.523 345.954 283.968 348.557 283.968C351.586 283.968 354.317 284.715 356.749 286.208C359.223 287.701 361.165 289.835 362.573 292.608C364.023 295.339 364.749 298.517 364.749 302.144C364.749 305.771 364.023 308.992 362.573 311.808C361.165 314.581 359.223 316.736 356.749 318.272C354.317 319.808 351.586 320.576 348.557 320.576C345.954 320.576 343.65 320.043 341.645 318.976C339.682 317.909 338.082 316.565 336.845 314.944V336.896H327.885V284.544H336.845V289.664ZM355.597 302.144C355.597 300.011 355.149 298.176 354.253 296.64C353.399 295.061 352.247 293.867 350.797 293.056C349.389 292.245 347.853 291.84 346.189 291.84C344.567 291.84 343.031 292.267 341.581 293.12C340.173 293.931 339.021 295.125 338.125 296.704C337.271 298.283 336.845 300.139 336.845 302.272C336.845 304.405 337.271 306.261 338.125 307.84C339.021 309.419 340.173 310.635 341.581 311.488C343.031 312.299 344.567 312.704 346.189 312.704C347.853 312.704 349.389 312.277 350.797 311.424C352.247 310.571 353.399 309.355 354.253 307.776C355.149 306.197 355.597 304.32 355.597 302.144ZM380.22 289.664C381.372 288.043 382.95 286.699 384.956 285.632C387.004 284.523 389.329 283.968 391.932 283.968C394.961 283.968 397.692 284.715 400.124 286.208C402.598 287.701 404.54 289.835 405.948 292.608C407.398 295.339 408.124 298.517 408.124 302.144C408.124 305.771 407.398 308.992 405.948 311.808C404.54 314.581 402.598 316.736 400.124 318.272C397.692 319.808 394.961 320.576 391.932 320.576C389.329 320.576 387.025 320.043 385.02 318.976C383.057 317.909 381.457 316.565 380.22 314.944V336.896H371.26V284.544H380.22V289.664ZM398.972 302.144C398.972 300.011 398.524 298.176 397.628 296.64C396.774 295.061 395.622 293.867 394.172 293.056C392.764 292.245 391.228 291.84 389.564 291.84C387.942 291.84 386.406 292.267 384.956 293.12C383.548 293.931 382.396 295.125 381.5 296.704C380.646 298.283 380.22 300.139 380.22 302.272C380.22 304.405 380.646 306.261 381.5 307.84C382.396 309.419 383.548 310.635 384.956 311.488C386.406 312.299 387.942 312.704 389.564 312.704C391.228 312.704 392.764 312.277 394.172 311.424C395.622 310.571 396.774 309.355 397.628 307.776C398.524 306.197 398.972 304.32 398.972 302.144ZM430.379 320.576C426.965 320.576 423.893 319.829 421.163 318.336C418.432 316.8 416.277 314.645 414.699 311.872C413.163 309.099 412.395 305.899 412.395 302.272C412.395 298.645 413.184 295.445 414.763 292.672C416.384 289.899 418.581 287.765 421.355 286.272C424.128 284.736 427.221 283.968 430.635 283.968C434.048 283.968 437.141 284.736 439.915 286.272C442.688 287.765 444.864 289.899 446.443 292.672C448.064 295.445 448.875 298.645 448.875 302.272C448.875 305.899 448.043 309.099 446.379 311.872C444.757 314.645 442.539 316.8 439.723 318.336C436.949 319.829 433.835 320.576 430.379 320.576ZM430.379 312.768C432 312.768 433.515 312.384 434.923 311.616C436.373 310.805 437.525 309.611 438.379 308.032C439.232 306.453 439.659 304.533 439.659 302.272C439.659 298.901 438.763 296.32 436.971 294.528C435.221 292.693 433.067 291.776 430.507 291.776C427.947 291.776 425.792 292.693 424.043 294.528C422.336 296.32 421.483 298.901 421.483 302.272C421.483 305.643 422.315 308.245 423.979 310.08C425.685 311.872 427.819 312.768 430.379 312.768ZM464.407 290.048C465.559 288.171 467.053 286.699 468.887 285.632C470.765 284.565 472.898 284.032 475.287 284.032V293.44H472.919C470.103 293.44 467.97 294.101 466.519 295.424C465.111 296.747 464.407 299.051 464.407 302.336V320H455.447V284.544H464.407V290.048ZM491.754 291.904V309.056C491.754 310.251 492.032 311.125 492.586 311.68C493.184 312.192 494.165 312.448 495.53 312.448H499.69V320H494.058C486.506 320 482.73 316.331 482.73 308.992V291.904H478.506V284.544H482.73V275.776H491.754V284.544H499.69V291.904H491.754ZM539.095 301.504C539.095 302.784 539.009 303.936 538.839 304.96H512.919C513.132 307.52 514.028 309.525 515.607 310.976C517.185 312.427 519.127 313.152 521.431 313.152C524.759 313.152 527.127 311.723 528.535 308.864H538.199C537.175 312.277 535.212 315.093 532.311 317.312C529.409 319.488 525.847 320.576 521.623 320.576C518.209 320.576 515.137 319.829 512.407 318.336C509.719 316.8 507.607 314.645 506.071 311.872C504.577 309.099 503.831 305.899 503.831 302.272C503.831 298.603 504.577 295.381 506.071 292.608C507.564 289.835 509.655 287.701 512.343 286.208C515.031 284.715 518.124 283.968 521.623 283.968C524.993 283.968 528.001 284.693 530.647 286.144C533.335 287.595 535.404 289.664 536.855 292.352C538.348 294.997 539.095 298.048 539.095 301.504ZM529.815 298.944C529.772 296.64 528.94 294.805 527.319 293.44C525.697 292.032 523.713 291.328 521.367 291.328C519.148 291.328 517.271 292.011 515.735 293.376C514.241 294.699 513.324 296.555 512.983 298.944H529.815ZM554.595 290.048C555.747 288.171 557.24 286.699 559.075 285.632C560.952 284.565 563.085 284.032 565.475 284.032V293.44H563.107C560.291 293.44 558.157 294.101 556.707 295.424C555.299 296.747 554.595 299.051 554.595 302.336V320H545.635V284.544H554.595V290.048ZM585.078 320.576C582.176 320.576 579.574 320.064 577.27 319.04C574.966 317.973 573.131 316.544 571.766 314.752C570.443 312.96 569.718 310.976 569.59 308.8H578.614C578.784 310.165 579.446 311.296 580.598 312.192C581.792 313.088 583.264 313.536 585.014 313.536C586.72 313.536 588.043 313.195 588.982 312.512C589.963 311.829 590.454 310.955 590.454 309.888C590.454 308.736 589.856 307.883 588.662 307.328C587.51 306.731 585.654 306.091 583.094 305.408C580.448 304.768 578.272 304.107 576.566 303.424C574.902 302.741 573.451 301.696 572.214 300.288C571.019 298.88 570.422 296.981 570.422 294.592C570.422 292.629 570.976 290.837 572.086 289.216C573.238 287.595 574.859 286.315 576.95 285.376C579.083 284.437 581.579 283.968 584.438 283.968C588.662 283.968 592.032 285.035 594.55 287.168C597.067 289.259 598.454 292.096 598.71 295.68H590.134C590.006 294.272 589.408 293.163 588.342 292.352C587.318 291.499 585.931 291.072 584.182 291.072C582.56 291.072 581.302 291.371 580.406 291.968C579.552 292.565 579.126 293.397 579.126 294.464C579.126 295.659 579.723 296.576 580.918 297.216C582.112 297.813 583.968 298.432 586.486 299.072C589.046 299.712 591.158 300.373 592.822 301.056C594.486 301.739 595.915 302.805 597.11 304.256C598.347 305.664 598.987 307.541 599.03 309.888C599.03 311.936 598.454 313.771 597.302 315.392C596.192 317.013 594.571 318.293 592.438 319.232C590.347 320.128 587.894 320.576 585.078 320.576Z" fill="black"/>
</g>
</g>
<defs>
<filter id="filter0_d" x="120.207" y="174.261" width="482.823" height="170.635" filterUnits="userSpaceOnUse" color-interpolation-filters="sRGB">
<feFlood flood-opacity="0" result="BackgroundImageFix"/>
<feColorMatrix in="SourceAlpha" type="matrix" values="0 0 0 0 0 0 0 0 0 0 0 0 0 0 0 0 0 0 127 0"/>
<feOffset dy="4"/>
<feGaussianBlur stdDeviation="2"/>
<feColorMatrix type="matrix" values="0 0 0 0 0 0 0 0 0 0 0 0 0 0 0 0 0 0 0.25 0"/>
<feBlend mode="normal" in2="BackgroundImageFix" result="effect1_dropShadow"/>
<feBlend mode="normal" in="SourceGraphic" in2="effect1_dropShadow" result="shape"/>
</filter>
</defs>
</svg>
